<svg width="512" height="512" viewBox="0 0 512 512" fill="none" xmlns="http://www.w3.org/2000/svg" xmlns:xlink="http://www.w3.org/1999/xlink" class=""><rect id="_r_6j_" width="512" height="512" x="0" y="0" rx="128" fill="url(#_r_6k_)" stroke="#FFFFFF" stroke-width="0" stroke-opacity="100%" paint-order="stroke"></rect><clipPath id="clip"><use xlink:href="#_r_6j_"></use></clipPath><defs><linearGradient id="_r_6k_" gradientUnits="userSpaceOnUse" gradientTransform="rotate(45)" style="transform-origin: center center;"><stop stop-color="#00B4DB"></stop><stop offset="1" stop-color="#003357"></stop></linearGradient><radialGradient id="_r_6l_" cx="0" cy="0" r="1" gradientUnits="userSpaceOnUse" gradientTransform="translate(256) rotate(90) scale(512)"><stop stop-color="white"></stop><stop offset="1" stop-color="white" stop-opacity="0"></stop></radialGradient></defs><svg xmlns="http://www.w3.org/2000/svg" fill="none" viewBox="0 0 16 16" width="352" height="352" x="80" y="80" alignment-baseline="middle" style="color: rgb(255, 255, 255); width: 352px; height: 352px;"><path fill="currentColor" fill-rule="evenodd" d="M8.289.223c-.278.11-.404.194-.404.306 0 .041.167.083.25.083 2.38.07 2.63 1.169 2.728 2.157.014.222-.264.946-.306 1.03-.213.416-.663 1.252-1.03 1.932l-.403.752c-.066.113-.158.226-.214.296a.693.693 0 0 0-.05.066l-.266.457C7.65 8.92 4.52 14.292 4.449 14.47a1.883 1.883 0 0 0-.097.43c.013.571.932 1.1 1.488 1.1.279 0 .501-.097.612-.306.307-.626 3.715-7.722 3.826-7.972.034-.076.068-.217.095-.332.018-.076.034-.141.045-.17.375-.792 1.377-2.893 1.753-3.324.32-.39.723-.724 1.113-.724.292 0 .556.25.71.46.083.11.11.264.11.264s.766.417.794.431c.055.028.292-.362.542-.877.237-.5.404-.918.362-.96 0-.013-.737-.39-.737-.39h-.028c-.265.043-.599.084-.849-.097-.16-.116-.26-.26-.361-.406-.128-.184-.259-.372-.515-.512l-.157-.083C12.412.604 11.283 0 9.611 0c-.612 0-1.044.111-1.322.223Zm-.668 14.15h3.242a2.547 2.547 0 0 0 2.546-2.547V4.438c0-.278-.042-.528-.125-.779h.014c.18 0 .334.292.403.445.07.14.265.25.445.334v7.625a3.046 3.046 0 0 1-3.046 3.046H7.26c.097-.194.222-.445.361-.737ZM8.47 1.154c1.057.028 1.503.334 1.711.751H3.475A2.547 2.547 0 0 0 .93 4.452v7.388a2.547 2.547 0 0 0 2.546 2.546h.529a1.804 1.804 0 0 0-.111.515.62.62 0 0 0 .045.205l.01.031h-.71A3.046 3.046 0 0 1 .193 12.09V4.202a3.046 3.046 0 0 1 3.047-3.047h5.23Zm2.296 12.883H7.788c.266-.548.57-1.184.877-1.831.224-.47.45-.946.668-1.397l.793 1.364a.64.64 0 0 0 .876.236.64.64 0 0 0 .237-.876L10 9.39c.348-.723.585-1.224.613-1.294.059-.125.102-.265.148-.412.051-.165.105-.337.186-.506.097-.188.22-.437.357-.714.452-.913 1.051-2.125 1.34-2.402.049-.044.091-.085.13-.123.06-.058.111-.108.162-.142.084.237.125.473.125.738v7.193a2.3 2.3 0 0 1-2.295 2.31Zm.737-4.883h-1.238l.737 1.294h.501c.362 0 .64-.293.64-.64a.641.641 0 0 0-.64-.654Zm-10.24 2.574V4.536c0-1.28 1.03-2.31 2.31-2.31h6.733c.042.153.07.306.084.473.028.223-.292.932-.334 1.016A68.716 68.716 0 0 1 8.762 6.15a2.82 2.82 0 0 1-.253.372c-.029.038-.049.065-.053.073 0 0-.014.014-.028.042l-.306-.53-.737 1.295.306.528-.111.194c-.18.314-.38.66-.599 1.017h-4.16a.638.638 0 0 0-.64.64c0 .362.292.64.64.64H6.23c-.89 1.53-1.767 3.047-2.073 3.59h-.584c-1.267.027-2.31-1.002-2.31-2.282Zm5.635-7.722a.64.64 0 1 0-1.113.64l.459.807.737-1.294-.083-.153Zm-.724 4.8 2.407-4.174a.64.64 0 1 0-1.113-.64L4.686 8.807h1.488Zm-1.92 3.353.793-1.377H3.56l-.432.737a.64.64 0 0 0 .237.877c.306.18.71.07.89-.237Z" clip-rule="evenodd"></path></svg></svg>